<svg xmlns="http://www.w3.org/2000/svg" width="820" height="84"><g><rect x="4" y="4" width="268" height="36" fill="#deecdc" stroke-width="1" stroke="#eff0ec"/><rect x="4" y="4" width="6" height="36" fill="#39aa56" stroke="#39aa56"/><text x="16" y="22" dominant-baseline="middle" text-anchor="start" font-size="24" font-family="sans-serif" fill="#666">Postgres 9.4</text></g><g><rect x="276" y="4" width="268" height="36" fill="#deecdc" stroke-width="1" stroke="#eff0ec"/><rect x="276" y="4" width="6" height="36" fill="#39aa56" stroke="#39aa56"/><text x="288" y="22" dominant-baseline="middle" text-anchor="start" font-size="24" font-family="sans-serif" fill="#666">Postgres 9.5</text></g><g><rect x="548" y="4" width="268" height="36" fill="#deecdc" stroke-width="1" stroke="#eff0ec"/><rect x="548" y="4" width="6" height="36" fill="#39aa56" stroke="#39aa56"/><text x="560" y="22" dominant-baseline="middle" text-anchor="start" font-size="24" font-family="sans-serif" fill="#666">Postgres 9.6</text></g><g><rect x="4" y="44" width="268" height="36" fill="#deecdc" stroke-width="1" stroke="#eff0ec"/><rect x="4" y="44" width="6" height="36" fill="#39aa56" stroke="#39aa56"/><text x="16" y="62" dominant-baseline="middle" text-anchor="start" font-size="24" font-family="sans-serif" fill="#666">Postgres 10</text></g><g><rect x="276" y="44" width="268" height="36" fill="#deecdc" stroke-width="1" stroke="#eff0ec"/><rect x="276" y="44" width="6" height="36" fill="#39aa56" stroke="#39aa56"/><text x="288" y="62" dominant-baseline="middle" text-anchor="start" font-size="24" font-family="sans-serif" fill="#666">Postgres 11</text></g><g><rect x="548" y="44" width="268" height="36" fill="#deecdc" stroke-width="1" stroke="#eff0ec"/><rect x="548" y="44" width="6" height="36" fill="#39aa56" stroke="#39aa56"/><text x="560" y="62" dominant-baseline="middle" text-anchor="start" font-size="24" font-family="sans-serif" fill="#666">Postgres 12</text></g></svg>